<mxfile host="app.diagrams.net" modified="2023-04-08T16:30:47.880Z" agent="Mozilla/5.0 (Windows NT 10.0; Win64; x64) AppleWebKit/537.36 (KHTML, like Gecko) Chrome/111.0.0.0 Safari/537.36" etag="2rRaJEVi8F-G6ZPHSbPv" version="21.1.5" type="github">
  <diagram name="Page-1" id="cMm6MIYfkvFpgvSu37Bc">
    <mxGraphModel dx="1434" dy="739" grid="1" gridSize="10" guides="1" tooltips="1" connect="1" arrows="1" fold="1" page="1" pageScale="1" pageWidth="1654" pageHeight="2336" math="0" shadow="0">
      <root>
        <mxCell id="0" />
        <mxCell id="1" parent="0" />
        <mxCell id="AUxa01VgVIh-RqmxJZG5-1" value="НАЧАЛО" style="ellipse;whiteSpace=wrap;html=1;fontSize=15;fontFamily=Tahoma;" vertex="1" parent="1">
          <mxGeometry x="640" y="40" width="160" height="80" as="geometry" />
        </mxCell>
        <mxCell id="AUxa01VgVIh-RqmxJZG5-2" value="Создание каталога управляющих объектов (список кнопок),&lt;br&gt;соответствующих &lt;br&gt;с технологическими операциями" style="rounded=0;whiteSpace=wrap;html=1;fontSize=15;fontFamily=Tahoma;" vertex="1" parent="1">
          <mxGeometry x="600" y="160" width="240" height="80" as="geometry" />
        </mxCell>
      </root>
    </mxGraphModel>
  </diagram>
</mxfile>
